<mxfile host="Electron" modified="2024-04-08T12:22:31.444Z" agent="Mozilla/5.0 (Macintosh; Intel Mac OS X 10_15_7) AppleWebKit/537.36 (KHTML, like Gecko) draw.io/24.1.0 Chrome/120.0.6099.109 Electron/28.1.0 Safari/537.36" etag="xwXE9wPUENp_6T3O1U1n" version="24.1.0" type="device">
  <diagram name="Page-1" id="T2R5U9bSDRogEcr2ErHG">
    <mxGraphModel dx="954" dy="674" grid="1" gridSize="10" guides="1" tooltips="1" connect="1" arrows="1" fold="1" page="1" pageScale="1" pageWidth="827" pageHeight="1169" math="0" shadow="0">
      <root>
        <mxCell id="0" />
        <mxCell id="1" parent="0" />
        <mxCell id="uNIH3fTSJTlQcVCUGxHj-10" value="" style="rounded=0;whiteSpace=wrap;html=1;" vertex="1" parent="1">
          <mxGeometry x="270" y="190" width="340" height="250" as="geometry" />
        </mxCell>
        <mxCell id="uNIH3fTSJTlQcVCUGxHj-1" value="" style="group" vertex="1" connectable="0" parent="1">
          <mxGeometry x="440" y="200" width="160" height="230" as="geometry" />
        </mxCell>
        <mxCell id="uNIH3fTSJTlQcVCUGxHj-2" value="" style="rounded=0;whiteSpace=wrap;html=1;" vertex="1" parent="uNIH3fTSJTlQcVCUGxHj-1">
          <mxGeometry width="160" height="230" as="geometry" />
        </mxCell>
        <mxCell id="uNIH3fTSJTlQcVCUGxHj-3" value="System" style="text;html=1;align=center;verticalAlign=middle;whiteSpace=wrap;rounded=0;strokeColor=default;" vertex="1" parent="uNIH3fTSJTlQcVCUGxHj-1">
          <mxGeometry width="160" height="30" as="geometry" />
        </mxCell>
        <mxCell id="uNIH3fTSJTlQcVCUGxHj-4" value="&lt;div&gt;uninstall&lt;/div&gt;&lt;div&gt;game&lt;/div&gt;" style="ellipse;whiteSpace=wrap;html=1;" vertex="1" parent="uNIH3fTSJTlQcVCUGxHj-1">
          <mxGeometry x="20" y="40" width="120" height="80" as="geometry" />
        </mxCell>
        <mxCell id="uNIH3fTSJTlQcVCUGxHj-5" value="install&lt;div&gt;game&lt;/div&gt;" style="ellipse;whiteSpace=wrap;html=1;" vertex="1" parent="uNIH3fTSJTlQcVCUGxHj-1">
          <mxGeometry x="20" y="130" width="120" height="80" as="geometry" />
        </mxCell>
        <mxCell id="uNIH3fTSJTlQcVCUGxHj-6" style="edgeStyle=orthogonalEdgeStyle;rounded=0;orthogonalLoop=1;jettySize=auto;html=1;entryX=0;entryY=0.5;entryDx=0;entryDy=0;curved=1;" edge="1" parent="1" source="uNIH3fTSJTlQcVCUGxHj-8" target="uNIH3fTSJTlQcVCUGxHj-4">
          <mxGeometry relative="1" as="geometry" />
        </mxCell>
        <mxCell id="uNIH3fTSJTlQcVCUGxHj-7" style="edgeStyle=orthogonalEdgeStyle;rounded=0;orthogonalLoop=1;jettySize=auto;html=1;entryX=0;entryY=0.5;entryDx=0;entryDy=0;curved=1;" edge="1" parent="1" source="uNIH3fTSJTlQcVCUGxHj-8" target="uNIH3fTSJTlQcVCUGxHj-5">
          <mxGeometry relative="1" as="geometry" />
        </mxCell>
        <mxCell id="uNIH3fTSJTlQcVCUGxHj-8" value="Player" style="shape=umlActor;verticalLabelPosition=bottom;verticalAlign=top;html=1;outlineConnect=0;" vertex="1" parent="1">
          <mxGeometry x="290" y="290" width="30" height="60" as="geometry" />
        </mxCell>
      </root>
    </mxGraphModel>
  </diagram>
</mxfile>
